<?xml version="1.0" encoding="UTF-8"?>
<svg id="Layer_1" xmlns="http://www.w3.org/2000/svg" viewBox="0 0 420.1 371.79">
  <defs>
    <style>
      .cls-1 {
        fill: #2a4b6a;
      }
    </style>
  </defs>
  <path class="cls-1" d="M343.45,0H76.74C34.38,0,0,34.28,0,76.64v156.03c0,42.35,34.39,76.57,76.74,76.57h169.59l35.81,51.43c4.84,6.94,12.76,11.09,21.21,11.11,8.44.02,16.38-4.07,21.23-10.98l37.89-53.82c33.14-8.48,57.64-38.52,57.64-74.31V76.64c0-42.36-34.29-76.64-76.65-76.64ZM141.61,179.59c-13.81,0-25.02-11.15-25.02-24.93s11.2-24.92,25.02-24.92,25.02,11.17,25.02,24.92-11.2,24.93-25.02,24.93ZM210.09,179.59c-13.81,0-25.02-11.15-25.02-24.93s11.2-24.92,25.02-24.92,25.01,11.17,25.01,24.92-11.19,24.93-25.01,24.93ZM278.58,179.59c-13.82,0-25.02-11.15-25.02-24.93s11.2-24.92,25.02-24.92,25.02,11.17,25.02,24.92-11.2,24.93-25.02,24.93Z"/>
</svg>