<?xml version="1.0" encoding="UTF-8"?>
<svg id="Layer_1" xmlns="http://www.w3.org/2000/svg" viewBox="0 0 396.08 396.08">
  <defs>
    <style>
      .cls-1 {
        fill: #294c6a;
        fill-rule: evenodd;
      }
    </style>
  </defs>
  <path class="cls-1" d="M0,198.04C0,88.67,88.67,0,198.04,0s198.04,88.67,198.04,198.04-88.67,198.04-198.04,198.04S0,307.42,0,198.04ZM167.48,223.14c-1.28,5.77,3.62,10.91,9.82,10.91h39.48c4.63,0,8.54-2.97,10.19-7.09,1.63-4.09,7.3-11.5,11.66-15.38,4.12-4.33,8.41-8.41,12.64-12.42,16.67-15.82,32.37-30.71,32.37-56.74,0-45.14-39.1-70.4-80.72-70.4-31.81,0-75.73,14.51-84.38,63.08-1.74,9.79,6.55,17.94,16.49,17.94h25.43c9.48,0,16.54-7.63,19.8-16.53,3.14-8.57,9.47-14.89,22.66-14.89,24.05,0,24.05,26.44,10.15,43.73-5.24,6.52-11.38,12.3-17.46,18.02-12.33,11.6-24.4,22.95-28.12,39.77ZM234.05,288.06c0,19.89-16.12,36.01-36.01,36.01s-36.01-16.12-36.01-36.01,16.12-36.01,36.01-36.01,36.01,16.12,36.01,36.01Z"/>
</svg>