<?xml version="1.0" encoding="UTF-8"?>
<svg id="Layer_1" xmlns="http://www.w3.org/2000/svg" viewBox="0 0 414.21 414.2">
  <defs>
    <style>
      .cls-1 {
        fill: #284d6a;
      }
    </style>
  </defs>
  <path class="cls-1" d="M207.1,0C92.73,0,0,92.73,0,207.1s92.73,207.1,207.1,207.1,207.11-92.73,207.11-207.1S321.49,0,207.1,0ZM243.46,302.18c-8.38,9.3-13.18,14.82-22.22,23.47-13.69,13.09-29.23,16.57-41.31,3.65-17.37-18.57.85-75.08,1.29-77.22,3.26-15.02,9.77-45.03,9.77-45.03,0,0-14.07,8.61-22.42,11.67-6.16,2.25-13.13-.7-14.85-6.66-1.61-5.52-.33-9.03,3.05-12.8,8.38-9.29,13.18-14.82,22.22-23.46,13.7-13.09,29.23-16.57,41.31-3.66,17.37,18.57,4.55,49.13.05,70.79-.44,2.15-11.12,51.47-11.12,51.47,0,0,14.07-8.61,22.42-11.67,6.17-2.24,13.14.72,14.86,6.67,1.61,5.52.31,9.03-3.07,12.79ZM220.99,142.48c-19.32,1.7-36.35-12.59-38.05-31.93-1.68-19.32,12.6-36.35,31.93-38.03,19.31-1.7,36.35,12.6,38.04,31.92,1.7,19.32-12.61,36.36-31.92,38.04Z"/>
</svg>