<?xml version="1.0" encoding="UTF-8"?>
<svg id="Layer_1" xmlns="http://www.w3.org/2000/svg" viewBox="0 0 445.69 445.69">
  <defs>
    <style>
      .cls-1 {
        fill: #2a4b6a;
      }
    </style>
  </defs>
  <path class="cls-1" d="M421.28,178.8h-23.63c-4.39-17.12-11.25-33.16-20.18-47.82l16.99-17.02c4.59-4.59,7.11-10.7,7.11-17.2s-2.54-12.61-7.11-17.19l-28.31-28.28c-9.18-9.19-25.23-9.18-34.37,0l-17.7,17.6c-14.5-8.45-30.05-14.97-47.18-19.16v-25.28c0-13.41-10.71-24.43-24.12-24.43h-40.02c-13.41,0-23.96,11.02-23.96,24.43v25.27c-17.12,4.18-32.77,10.7-47.29,19.17l-17.69-17.6c-9.17-9.19-25.23-9.18-34.43,0l-28.29,28.28c-4.54,4.53-7.13,10.79-7.13,17.19s2.51,12.59,7.11,17.18l16.99,17.06c-8.93,14.67-15.79,30.7-20.17,47.82h-23.64c-13.42,0-24.25,10.78-24.25,24.16v39.99c0,13.42,10.83,23.96,24.25,23.96h23.64c4.38,17.12,11.24,33.25,20.16,47.92l-16.99,17.09c-4.6,4.59-7.12,10.72-7.12,17.22s2.53,12.63,7.12,17.22l28.31,28.3c4.6,4.59,10.69,7.11,17.18,7.11s12.59-2.53,17.19-7.11l17.77-17.61c14.52,8.46,30.17,14.98,47.29,19.18v25.25c0,13.41,10.55,24.22,23.96,24.22h40.02c13.41,0,24.12-10.81,24.12-24.22v-25.26c17.13-4.19,32.68-10.7,47.2-19.17l17.62,17.57c4.6,4.61,10.7,7.13,17.21,7.13s12.61-2.53,17.2-7.11l28.31-28.28c4.59-4.58,7.1-10.69,7.12-17.18,0-6.5-2.54-12.59-7.12-17.19l-16.97-17.16c8.92-14.68,15.77-30.82,20.17-47.92h23.64c13.41,0,24.43-10.54,24.43-23.96v-39.99c0-13.38-11-24.16-24.41-24.16ZM222.75,299.09c-42.44,0-76.86-34.1-76.86-76.12s34.42-76.1,76.86-76.1,76.89,34.05,76.89,76.1c0,42.04-34.44,76.12-76.89,76.12Z"/>
</svg>