<?xml version="1.0" encoding="UTF-8"?>
<svg id="Layer_3" xmlns="http://www.w3.org/2000/svg" viewBox="0 0 302.28 452.15">
  <defs>
    <style>
      .cls-1 {
        fill: #2b4a6a;
      }
    </style>
  </defs>
  <path class="cls-1" d="M80,316.3c3.02-2.75,5.89-47.8,18.22-76.44,13.13-30.51,62.82-94.67,62.82-100s-18.38-2.22-21.79,0c-3.41,2.22-50.37,43.26-50.37,43.26,0,0-11.85,9.48-20.74,0-8.89-9.48-3.56-21.33-3.56-21.33,0,0,34.96-42.81,59.85-55.11,24.89-12.3,67.33-8.74,92,0,24.67,8.74,35.56,26.07,40.74,34.37,5.19,8.3-7.48,35.41.37,44.67,5.8,6.84,31.64,11.87,44.72,13.06V0H34.03v312.96s41.3,7.59,45.97,3.33ZM257.56,50.37c19.51,0,35.33,15.82,35.33,35.33s-15.82,35.33-35.33,35.33-35.33-15.82-35.33-35.33,15.82-35.33,35.33-35.33Z"/>
  <path class="cls-1" d="M234.59,215.33c-14.44-7.85-13.04-24.59-16.59-30.81-3.56-6.22-30.93,46.47-34.96,53.78-.3,1.79,32,52.15,35.04,63.33s0,99.56,0,99.56c0,0,2.37,18.37-19.85,18.37s-19.85-18.37-19.85-18.37l1.19-87.11s-24.89-52.89-35.56-51.11c-10.67,1.78-5.75,53.33-23.11,79.11-17.36,25.78-86.86,2.77-86.86,2.77v84.94L0,452.15h159.18c8.74-7.68,18.59-13.95,28.12-20.57,5.72-3.98,14.27-1.02,17.57,4.61,3.24,5.54,1.63,11.83-2.65,15.96h78.08l21.98-22.37v-200.25c-16.82-2.25-56.41-8.07-67.69-14.2Z"/>
</svg>